HIERARCHY
ROOT root
{
	OFFSET 0.000000 0.000000 0.000000
	CHANNELS 6 Xposition Yposition Zposition Zrotation Yrotation Xrotation
	JOINT lhip
	{
		OFFSET 0.058581 -0.082280 -0.017664
		CHANNELS 3 Zrotation Yrotation Xrotation
		JOINT lknee
		{
			OFFSET 0.043451 -0.386469 0.008037
			CHANNELS 3 Zrotation Yrotation Xrotation
			JOINT lankle
			{
				OFFSET -0.014790 -0.426874 -0.037428
				CHANNELS 3 Zrotation Yrotation Xrotation
				JOINT ltoe
				{
					OFFSET 0.041054 -0.060286 0.122042
					CHANNELS 3 Zrotation Yrotation Xrotation
					End Site
					{
						OFFSET 0.000000 0.000000 0.000000
					}
				}
			}
		}
	}
	JOINT rhip
	{
		OFFSET -0.060310 -0.090513 -0.013543
		CHANNELS 3 Zrotation Yrotation Xrotation
		JOINT rknee
		{
			OFFSET -0.043257 -0.383688 -0.004843
			CHANNELS 3 Zrotation Yrotation Xrotation
			JOINT rankle
			{
				OFFSET 0.019056 -0.420046 -0.034562
				CHANNELS 3 Zrotation Yrotation Xrotation
				JOINT rtoe
				{
					OFFSET -0.034840 -0.062106 0.130323
					CHANNELS 3 Zrotation Yrotation Xrotation
					End Site
					{
						OFFSET 0.000000 0.000000 0.000000
					}
				}
			}
		}
	}
	JOINT lowerback
	{
		OFFSET 0.004439 0.124404 -0.038385
		CHANNELS 3 Zrotation Yrotation Xrotation
		JOINT upperback
		{
			OFFSET 0.004488 0.137956 0.026820
			CHANNELS 3 Zrotation Yrotation Xrotation
			JOINT chest
			{
				OFFSET -0.002265 0.056032 0.002855
				CHANNELS 3 Zrotation Yrotation Xrotation
				JOINT lowerneck
				{
					OFFSET -0.013390 0.211636 -0.033468
					CHANNELS 3 Zrotation Yrotation Xrotation
					JOINT upperneck
					{
						OFFSET 0.010113 0.088937 0.050410
						CHANNELS 3 Zrotation Yrotation Xrotation
						End Site
						{
							OFFSET 0.000000 0.000000 0.000000
						}
					}
				}
				JOINT lclavicle
				{
					OFFSET 0.071702 0.114000 -0.018898
					CHANNELS 3 Zrotation Yrotation Xrotation
					JOINT lshoulder
					{
						OFFSET 0.122921 0.045205 -0.019046
						CHANNELS 3 Zrotation Yrotation Xrotation
						JOINT lelbow
						{
							OFFSET 0.255332 -0.015649 -0.022946
							CHANNELS 3 Zrotation Yrotation Xrotation
							JOINT lwrist
							{
								OFFSET 0.265709 0.012698 -0.007375
								CHANNELS 3 Zrotation Yrotation Xrotation
								End Site
								{
									OFFSET 0.000000 0.000000 0.000000
								}
							}
						}
					}
				}
				JOINT rclavicle
				{
					OFFSET -0.082954 0.112472 -0.023707
					CHANNELS 3 Zrotation Yrotation Xrotation
					JOINT rshoulder
					{
						OFFSET -0.113228 0.046853 -0.008472
						CHANNELS 3 Zrotation Yrotation Xrotation
						JOINT relbow
						{
							OFFSET -0.260127 -0.014369 -0.031269
							CHANNELS 3 Zrotation Yrotation Xrotation
							JOINT rwrist
							{
								OFFSET -0.269108 0.006794 -0.006027
								CHANNELS 3 Zrotation Yrotation Xrotation
								End Site
								{
									OFFSET 0.000000 0.000000 0.000000
								}
							}
						}
					}
				}
			}
		}
	}
}
MOTION
Frames: 7
Frame Time: 0.033333
0.280540 1.292969 0.972491 75.362784 -2.439654 82.278690 0.387293 -4.169219 -16.521698 -0.373327 2.795150 7.065231 0.291801 8.585104 -6.265902 0.000000 -0.000000 0.000000 -4.496216 -1.405709 27.155852 -0.196922 17.720596 11.277884 4.958877 4.958814 -12.718823 0.000000 -0.000000 0.000000 2.048314 11.501985 7.383330 -0.991870 0.748966 3.298912 -1.924699 5.215201 0.677695 2.600587 2.654864 -5.176586 -4.140461 -2.396589 4.985071 -24.980549 2.869530 0.197756 -63.562219 7.486825 8.994501 6.531026 -4.557902 7.994889 -6.563438 -6.528721 -9.618368 22.131107 15.429572 -3.703938 48.983927 36.188221 9.160136 -22.176532 25.738621 -22.642675 1.896852 9.793181 -15.556295 
0.329336 1.296565 0.972142 77.253557 -3.520101 83.109815 -1.067282 -5.210119 -18.072403 -1.526197 3.278408 11.157260 -0.253859 9.130557 -3.420045 0.000000 -0.000000 0.000000 -4.166162 -0.571631 26.027098 -0.706614 17.047761 16.395567 6.224300 4.182585 -8.195596 0.000000 -0.000000 0.000000 0.090272 11.434694 6.870234 -1.072119 -0.043754 2.406664 -2.076321 4.792655 0.741211 3.090377 2.384258 -6.271317 -3.680009 -2.489916 5.417148 -25.319639 3.458768 0.713512 -62.849917 10.218805 7.863530 7.092082 -1.211523 7.058825 -7.483522 -7.355008 -9.452274 22.310821 14.964405 -4.376336 48.982285 36.431351 10.030111 -23.837447 27.820503 -22.985656 2.483095 10.079224 -16.520336 
0.377395 1.300189 0.976815 78.775841 -4.566799 82.850831 -2.696281 -5.981537 -17.061302 -2.509917 4.321905 14.718264 1.341730 9.307982 -4.158492 0.000000 -0.000000 0.000000 -4.297873 0.130875 24.134739 -0.038546 15.498985 24.045386 7.709500 3.672881 -0.444921 0.000000 -0.000000 0.000000 -1.099473 11.317563 7.119268 -1.381545 -0.136210 2.465078 -2.607288 4.261425 0.595748 3.194988 1.196856 -6.390668 -2.975835 -2.456320 4.442626 -25.422991 3.355855 1.653766 -62.043015 11.772880 6.570477 7.603379 0.259217 5.722580 -7.888370 -7.682998 -8.347771 22.447565 14.554643 -4.940918 50.190974 35.297554 10.821464 -26.175857 29.578235 -24.704558 3.276017 10.290515 -16.566492 
0.423050 1.304715 0.982369 79.508953 -4.797834 82.260549 -4.317901 -5.504681 -14.646121 -3.264787 2.588338 16.474911 3.794009 9.491025 -6.086579 0.000000 -0.000000 0.000000 -4.012989 0.661769 20.104320 1.532337 14.960358 34.442779 8.201674 2.447760 6.897067 0.000000 -0.000000 0.000000 -1.192932 10.187396 7.539127 -1.432902 0.349999 2.912561 -2.948897 4.000920 0.812490 2.988902 0.363905 -6.719052 -3.142440 -1.576860 3.710163 -25.584582 3.182913 2.093777 -61.918874 12.396466 5.608609 7.283905 0.592287 4.335241 -7.485482 -6.785160 -8.070662 22.243351 14.638913 -5.240977 51.057038 34.262696 11.480023 -27.397053 30.616309 -25.915080 4.462592 10.516836 -15.989159 
0.465102 1.309058 0.989425 80.306526 -5.176118 81.996891 -6.237334 -5.802567 -11.795382 -2.577577 2.667190 16.609753 3.701063 9.695477 -8.316447 0.000000 -0.000000 0.000000 -3.873093 1.110001 14.423233 1.395877 12.255419 44.691639 10.210956 -0.691878 11.128801 0.000000 -0.000000 0.000000 -1.841789 8.835900 8.220472 -1.555922 0.435065 2.966924 -2.629126 3.571291 0.125953 2.621274 0.091665 -5.493344 -3.258092 0.095166 2.682902 -25.069403 2.409336 2.657771 -63.219408 12.418584 1.158398 7.724755 0.492108 2.261292 -9.055439 -7.412516 -3.367535 21.008944 15.500128 -5.760540 53.869145 30.775035 11.944125 -28.627758 31.558413 -28.943608 9.531552 10.927001 -12.099427 
0.507335 1.312061 0.997409 82.105291 -4.737680 80.960233 -7.423652 -5.323220 -7.268014 -2.487388 0.495151 15.255494 3.842872 10.185326 -9.846591 0.000000 -0.000000 0.000000 -3.110649 1.465476 10.073996 -0.771789 7.021811 52.324559 8.473319 -4.930305 6.295990 0.000000 -0.000000 0.000000 -1.963853 6.837787 9.311577 -1.212751 0.184430 2.801245 -2.072876 2.984046 0.585506 2.559605 0.966172 -5.652835 -3.940165 0.281654 2.985318 -24.926997 1.741121 3.297500 -64.453386 10.672824 0.937304 8.090047 -0.388884 1.894454 -10.207456 -8.083472 -5.493755 21.422430 14.946999 -5.929727 53.825540 28.684929 12.344736 -26.144983 33.130245 -24.689924 9.520520 11.781245 -13.378999 
0.546062 1.313848 1.004327 83.222698 -4.137472 80.536149 -7.702315 -4.033125 -3.062995 -2.725037 -2.102774 12.860771 4.049681 10.868409 -10.704187 0.000000 -0.000000 0.000000 -2.408572 2.391779 3.919195 -3.112842 2.583106 59.698167 5.930183 -7.727263 0.309675 0.000000 -0.000000 0.000000 -1.865529 4.777080 10.779147 -1.045729 0.381902 1.721574 -1.777855 2.295462 0.585425 2.810034 2.178490 -5.083407 -4.254224 0.346568 2.891318 -24.836696 0.650870 3.373549 -64.769400 8.502232 1.654290 7.665532 -0.441629 2.082945 -11.176312 -7.912634 -6.922150 22.061215 14.278762 -5.176125 55.352743 25.794904 13.183115 -25.116130 34.486978 -22.416781 8.583509 11.815423 -14.657279 
